<svg id="visual" viewBox="0 0 900 600" width="900" height="600" xmlns="http://www.w3.org/2000/svg" xmlns:xlink="http://www.w3.org/1999/xlink" version="1.1"><rect x="0" y="0" width="900" height="600" fill="#ffefff"></rect><path d="M0 365L21.5 362.3C43 359.7 86 354.3 128.8 352C171.7 349.7 214.3 350.3 257.2 363.3C300 376.3 343 401.7 385.8 416.7C428.7 431.7 471.3 436.3 514.2 426C557 415.7 600 390.3 642.8 388.5C685.7 386.7 728.3 408.3 771.2 420.3C814 432.3 857 434.7 878.5 435.8L900 437L900 601L878.5 601C857 601 814 601 771.2 601C728.3 601 685.7 601 642.8 601C600 601 557 601 514.2 601C471.3 601 428.7 601 385.8 601C343 601 300 601 257.2 601C214.3 601 171.7 601 128.8 601C86 601 43 601 21.5 601L0 601Z" fill="#f6cfff"></path><path d="M0 475L21.5 470.5C43 466 86 457 128.8 453.3C171.7 449.7 214.3 451.3 257.2 447.2C300 443 343 433 385.8 429.2C428.7 425.3 471.3 427.7 514.2 430.5C557 433.3 600 436.7 642.8 436.2C685.7 435.7 728.3 431.3 771.2 426.7C814 422 857 417 878.5 414.5L900 412L900 601L878.5 601C857 601 814 601 771.2 601C728.3 601 685.7 601 642.8 601C600 601 557 601 514.2 601C471.3 601 428.7 601 385.8 601C343 601 300 601 257.2 601C214.3 601 171.7 601 128.8 601C86 601 43 601 21.5 601L0 601Z" fill="#f7c0fd"></path><path d="M0 508L21.5 499.5C43 491 86 474 128.8 469.7C171.7 465.3 214.3 473.7 257.2 470.7C300 467.7 343 453.3 385.8 451C428.7 448.7 471.3 458.3 514.2 459.8C557 461.3 600 454.7 642.8 455.2C685.7 455.7 728.3 463.3 771.2 470.8C814 478.3 857 485.7 878.5 489.3L900 493L900 601L878.5 601C857 601 814 601 771.2 601C728.3 601 685.7 601 642.8 601C600 601 557 601 514.2 601C471.3 601 428.7 601 385.8 601C343 601 300 601 257.2 601C214.3 601 171.7 601 128.8 601C86 601 43 601 21.5 601L0 601Z" fill="#f9b1fa"></path><path d="M0 519L21.5 516.2C43 513.3 86 507.7 128.8 503.5C171.7 499.3 214.3 496.7 257.2 497.2C300 497.7 343 501.3 385.8 506.8C428.7 512.3 471.3 519.7 514.2 522.8C557 526 600 525 642.8 519.8C685.7 514.7 728.3 505.3 771.2 504.3C814 503.3 857 510.7 878.5 514.3L900 518L900 601L878.5 601C857 601 814 601 771.2 601C728.3 601 685.7 601 642.8 601C600 601 557 601 514.2 601C471.3 601 428.7 601 385.8 601C343 601 300 601 257.2 601C214.3 601 171.7 601 128.8 601C86 601 43 601 21.5 601L0 601Z" fill="#fca0f6"></path><path d="M0 525L21.5 532C43 539 86 553 128.8 556.2C171.7 559.3 214.3 551.7 257.2 551.5C300 551.3 343 558.7 385.8 555.5C428.7 552.3 471.3 538.7 514.2 536.8C557 535 600 545 642.8 552.8C685.7 560.7 728.3 566.3 771.2 565.7C814 565 857 558 878.5 554.5L900 551L900 601L878.5 601C857 601 814 601 771.2 601C728.3 601 685.7 601 642.8 601C600 601 557 601 514.2 601C471.3 601 428.7 601 385.8 601C343 601 300 601 257.2 601C214.3 601 171.7 601 128.8 601C86 601 43 601 21.5 601L0 601Z" fill="#ff8ef0"></path></svg>