<svg id="visual" viewBox="0 0 900 600" width="900" height="600" xmlns="http://www.w3.org/2000/svg" xmlns:xlink="http://www.w3.org/1999/xlink" version="1.1"><rect x="0" y="0" width="900" height="600" fill="#ffefff"></rect><path d="M0 284L15 281.8C30 279.7 60 275.3 90 280.8C120 286.3 150 301.7 180 297.3C210 293 240 269 270 256.3C300 243.7 330 242.3 360 247.2C390 252 420 263 450 264.5C480 266 510 258 540 251.5C570 245 600 240 630 238.3C660 236.7 690 238.3 720 238.5C750 238.7 780 237.3 810 241.3C840 245.3 870 254.7 885 259.3L900 264L900 0L885 0C870 0 840 0 810 0C780 0 750 0 720 0C690 0 660 0 630 0C600 0 570 0 540 0C510 0 480 0 450 0C420 0 390 0 360 0C330 0 300 0 270 0C240 0 210 0 180 0C150 0 120 0 90 0C60 0 30 0 15 0L0 0Z" fill="#f6cfff"></path><path d="M0 262L15 267.2C30 272.3 60 282.7 90 274.8C120 267 150 241 180 236.3C210 231.7 240 248.3 270 258C300 267.7 330 270.3 360 262.7C390 255 420 237 450 225.5C480 214 510 209 540 219.7C570 230.3 600 256.7 630 266.8C660 277 690 271 720 269.8C750 268.7 780 272.3 810 267.2C840 262 870 248 885 241L900 234L900 0L885 0C870 0 840 0 810 0C780 0 750 0 720 0C690 0 660 0 630 0C600 0 570 0 540 0C510 0 480 0 450 0C420 0 390 0 360 0C330 0 300 0 270 0C240 0 210 0 180 0C150 0 120 0 90 0C60 0 30 0 15 0L0 0Z" fill="#f6c8fe"></path><path d="M0 190L15 204.5C30 219 60 248 90 259.5C120 271 150 265 180 252.7C210 240.3 240 221.7 270 220.5C300 219.3 330 235.7 360 244.7C390 253.7 420 255.3 450 244.2C480 233 510 209 540 210.7C570 212.3 600 239.7 630 244.2C660 248.7 690 230.3 720 227.3C750 224.3 780 236.7 810 233.5C840 230.3 870 211.7 885 202.3L900 193L900 0L885 0C870 0 840 0 810 0C780 0 750 0 720 0C690 0 660 0 630 0C600 0 570 0 540 0C510 0 480 0 450 0C420 0 390 0 360 0C330 0 300 0 270 0C240 0 210 0 180 0C150 0 120 0 90 0C60 0 30 0 15 0L0 0Z" fill="#f7c0fd"></path><path d="M0 188L15 191.7C30 195.3 60 202.7 90 211.2C120 219.7 150 229.3 180 232.3C210 235.3 240 231.7 270 218.5C300 205.3 330 182.7 360 172.5C390 162.3 420 164.7 450 169.8C480 175 510 183 540 185.7C570 188.3 600 185.7 630 184C660 182.3 690 181.7 720 176.8C750 172 780 163 810 172.7C840 182.3 870 210.7 885 224.8L900 239L900 0L885 0C870 0 840 0 810 0C780 0 750 0 720 0C690 0 660 0 630 0C600 0 570 0 540 0C510 0 480 0 450 0C420 0 390 0 360 0C330 0 300 0 270 0C240 0 210 0 180 0C150 0 120 0 90 0C60 0 30 0 15 0L0 0Z" fill="#f8b9fc"></path><path d="M0 162L15 167.5C30 173 60 184 90 190.8C120 197.7 150 200.3 180 194C210 187.7 240 172.3 270 167.3C300 162.3 330 167.7 360 171.3C390 175 420 177 450 178.5C480 180 510 181 540 181.5C570 182 600 182 630 173.2C660 164.3 690 146.7 720 147.8C750 149 780 169 810 178.2C840 187.3 870 185.7 885 184.8L900 184L900 0L885 0C870 0 840 0 810 0C780 0 750 0 720 0C690 0 660 0 630 0C600 0 570 0 540 0C510 0 480 0 450 0C420 0 390 0 360 0C330 0 300 0 270 0C240 0 210 0 180 0C150 0 120 0 90 0C60 0 30 0 15 0L0 0Z" fill="#f9b1fa"></path><path d="M0 162L15 154.3C30 146.7 60 131.3 90 130C120 128.7 150 141.3 180 141.5C210 141.7 240 129.3 270 126C300 122.7 330 128.3 360 134.5C390 140.7 420 147.3 450 142.2C480 137 510 120 540 120.3C570 120.7 600 138.3 630 149.7C660 161 690 166 720 163.8C750 161.7 780 152.3 810 150.2C840 148 870 153 885 155.5L900 158L900 0L885 0C870 0 840 0 810 0C780 0 750 0 720 0C690 0 660 0 630 0C600 0 570 0 540 0C510 0 480 0 450 0C420 0 390 0 360 0C330 0 300 0 270 0C240 0 210 0 180 0C150 0 120 0 90 0C60 0 30 0 15 0L0 0Z" fill="#faa9f8"></path><path d="M0 99L15 104.5C30 110 60 121 90 124C120 127 150 122 180 116.2C210 110.3 240 103.7 270 101.2C300 98.7 330 100.3 360 106.7C390 113 420 124 450 120.2C480 116.3 510 97.7 540 92.7C570 87.7 600 96.3 630 102C660 107.7 690 110.3 720 106.3C750 102.3 780 91.7 810 85.8C840 80 870 79 885 78.5L900 78L900 0L885 0C870 0 840 0 810 0C780 0 750 0 720 0C690 0 660 0 630 0C600 0 570 0 540 0C510 0 480 0 450 0C420 0 390 0 360 0C330 0 300 0 270 0C240 0 210 0 180 0C150 0 120 0 90 0C60 0 30 0 15 0L0 0Z" fill="#fca0f6"></path><path d="M0 82L15 82.7C30 83.3 60 84.7 90 81.7C120 78.7 150 71.3 180 68.7C210 66 240 68 270 68.5C300 69 330 68 360 67C390 66 420 65 450 69C480 73 510 82 540 80.5C570 79 600 67 630 66.2C660 65.3 690 75.7 720 75C750 74.3 780 62.7 810 56.2C840 49.7 870 48.3 885 47.7L900 47L900 0L885 0C870 0 840 0 810 0C780 0 750 0 720 0C690 0 660 0 630 0C600 0 570 0 540 0C510 0 480 0 450 0C420 0 390 0 360 0C330 0 300 0 270 0C240 0 210 0 180 0C150 0 120 0 90 0C60 0 30 0 15 0L0 0Z" fill="#fd97f3"></path><path d="M0 49L15 46.2C30 43.3 60 37.7 90 36.5C120 35.3 150 38.7 180 43.2C210 47.7 240 53.3 270 51.3C300 49.3 330 39.7 360 33.7C390 27.7 420 25.3 450 27.7C480 30 510 37 540 38.3C570 39.7 600 35.3 630 37C660 38.7 690 46.3 720 50.2C750 54 780 54 810 50.8C840 47.7 870 41.3 885 38.2L900 35L900 0L885 0C870 0 840 0 810 0C780 0 750 0 720 0C690 0 660 0 630 0C600 0 570 0 540 0C510 0 480 0 450 0C420 0 390 0 360 0C330 0 300 0 270 0C240 0 210 0 180 0C150 0 120 0 90 0C60 0 30 0 15 0L0 0Z" fill="#ff8ef0"></path></svg>